<?xml version="1.0" encoding="utf-8"?>
<!-- Generator: Adobe Illustrator 23.1.0, SVG Export Plug-In . SVG Version: 6.00 Build 0)  -->
<svg version="1.1" xmlns="http://www.w3.org/2000/svg" xmlns:xlink="http://www.w3.org/1999/xlink" x="0px" y="0px"
	 viewBox="0 0 2440 920" style="enable-background:new 0 0 2440 920;" xml:space="preserve">
<style type="text/css">
	.st0{fill:#232930;}
	.st1{fill:#2A3039;}
	.st2{fill:none;stroke:#E5A30E;stroke-width:4;stroke-miterlimit:10;}
	.st3{fill:#262E38;}
	.st4{fill:none;stroke:#3366FF;stroke-width:4;stroke-miterlimit:10;}
	.st5{display:none;}
	.st6{fill:none;stroke:#4F5359;stroke-width:4;stroke-miterlimit:10;}
	.st7{fill:none;stroke:#F4BC2E;stroke-width:4;stroke-miterlimit:10;}
	.st8{opacity:0.75;fill:#2F333A;stroke:#454C59;stroke-width:3;stroke-linecap:round;stroke-miterlimit:10;}
	.st9{fill:#F4BC2E;}
	.st10{fill:#3366FF;}
</style>
<g id="Layer_8">
	<g id="Layer_6_1_">
		<polyline class="st0" points="1220,15.6 1086,16.3 1086.9,39.7 1013.2,53.6 803.8,16.7 600.7,53.2 322.6,15.6 71.7,303.5 
			74.1,619 320.6,904.5 600.8,867.1 804.7,904.5 1016.2,866.7 1086.9,879.5 1087.3,903.9 1220,903.6 		"/>
		<g>
			<g>
				<polygon class="st1" points="320.6,904.5 803.8,904.5 600.8,866.3 				"/>
				<polygon class="st1" points="1016.3,866 802.8,904.5 1088,903.6 1087,879.5 				"/>
			</g>
		</g>
		<g>
			<g>
				<polygon class="st1" points="320.6,16.3 804.8,16.3 599.8,53.5 				"/>
				<polygon class="st1" points="1013.3,53.8 802.8,16.3 1087,16.3 1087,40.3 				"/>
			</g>
		</g>
		<polyline class="st0" points="1220,903.6 1352.6,903.9 1353.1,879.5 1423.8,866.7 1635.3,904.5 1839.2,867.1 2119.4,904.5 
			2365.9,619 2368.3,303.5 2117.4,15.6 1839.3,53.2 1636.2,16.7 1426.8,53.6 1353.1,39.7 1354,16.3 1220,15.6 		"/>
		<g>
			<g>
				<polygon class="st1" points="2119.4,904.5 1636.2,904.5 1839.2,866.3 				"/>
				<polygon class="st1" points="1423.7,866 1637.2,904.5 1352,903.6 1353,879.5 				"/>
			</g>
		</g>
		<g>
			<g>
				<polygon class="st1" points="2119.4,16.3 1635.2,16.3 1840.2,53.5 				"/>
				<polygon class="st1" points="1426.7,53.8 1637.2,16.3 1353,16.3 1353,40.3 				"/>
			</g>
		</g>
	</g>
	<g id="Layer_9_1_">
		<path class="st2" d="M414,514.6l-9,20l0.3,119.6l53.7,53.4h19l70,73v16l51.5,51.8l52.2-52.2l0.3-16.6l70-72h19l62.5-63.3
			l70.9,70.6l17,3.2l66.3,66l4,18l47.9,48.5l10.4-11l6-17l17-18l19-6l10-10l-47.8-48.8l-17.4-2.8l-66.7-68.4l-2.6-17.3L922.3,636
			l38.7-38.4c0,0-313.9,0-326,0c-11.8,0-24-7.3-24-20c0-13.8,0-118,0-118s0-103.2,0-117c0-12.7,12.3-20,24-20c12.1,0,327,0,327,0
			l-39.7-41.4l15.2-15.3l2.6-17.3l66.7-68.5l17.4-2.8l47.8-48.7l-10-10l-19-6l-17-18l-6-17l-10.4-11l-47.9,48.5l-4,18l-66.3,66
			l-17,3.2l-70.9,70.6L741,209.6h-19l-70-72l-0.3-16.6l-52.2-52.2L548,120.6v16l-70,73h-19L405.3,263L405,379.6l9,20V514.6z"/>
		<polygon class="st3" points="640,353.6 714,353.6 738,340.6 870,340.6 894,353.6 968,353.6 968,565.6 894,565.6 870,578.6 
			738,578.6 714,565.6 640,565.6 		"/>
		<path class="st4" d="M2026.5,514.6l9,20l-0.3,119.6l-53.7,53.4h-19l-70,73v16l-51.5,51.8l-52.2-52.2l-0.3-16.6l-70-72h-19
			l-62.5-63.3l-70.9,70.6l-17,3.2l-66.3,66l-4,18l-47.9,48.5l-10.4-11l-6-17l-17-18l-19-6l-10-10l47.8-48.8l17.4-2.8l66.7-68.5
			l2.6-17.3l15.2-15.3l-38.7-38.4c0,0,313.9,0,326,0c11.8,0,24-7.3,24-20c0-13.8,0-118,0-118s0-103.2,0-117c0-12.7-12.3-20-24-20
			c-12.1,0-327,0-327,0l39.7-41.4l-15.2-15.3l-2.6-17.3l-66.7-68.5l-17.4-2.8l-47.8-48.8l10-10l19-6l17-18l6-17l10.4-11l47.9,48.5
			l4,18l66.3,66l17,3.2l70.9,70.6l62.5-63.3h19l70-72l0.3-16.6l52.2-52.2l51.5,51.8v16l70,73h19l53.7,53.4l0.3,116.6l-9,20V514.6z"
			/>
		<polygon class="st3" points="1800.5,353.6 1726.5,353.6 1702.5,340.6 1570.5,340.6 1546.5,353.6 1472.5,353.6 1472.5,565.6 
			1546.5,565.6 1570.5,578.6 1702.5,578.6 1726.5,565.6 1800.5,565.6 		"/>
	</g>
</g>
<g id="Layer_5" class="st5">
	
		<image style="display:inline;overflow:visible;opacity:0.46;" width="583" height="197" xlink:href="551ADAFD.jpg"  transform="matrix(3.9429 0 0 4.7733 66.205 -20.3333)">
	</image>
</g>
<g id="Layer_7">
</g>
<g id="Layer_12">
	<g id="Layer_3_1_">
		<line class="st6" x1="1181.9" y1="489.9" x2="1181.9" y2="905.6"/>
		<line class="st6" x1="1143.1" y1="489.9" x2="1143.1" y2="904.5"/>
		<line class="st6" x1="1087" y1="490.3" x2="1087" y2="904.5"/>
		<line class="st6" x1="1088.5" y1="488.6" x2="1220" y2="488.6"/>
		<line class="st6" x1="1086" y1="792.4" x2="1220" y2="792.4"/>
		<line class="st6" x1="73" y1="459.6" x2="73" y2="618.6"/>
		<line class="st6" x1="1086" y1="638.2" x2="939.1" y2="639.2"/>
		<line class="st6" x1="803.5" y1="664.6" x2="803.5" y2="904.6"/>
		<line class="st6" x1="155" y1="459.6" x2="155" y2="550.6"/>
		<line class="st6" x1="390.4" y1="459.6" x2="392.2" y2="663.1"/>
		<line class="st6" x1="155" y1="550.6" x2="321.6" y2="904.1"/>
		<line class="st6" x1="392.2" y1="663.1" x2="321.6" y2="904.1"/>
		<line class="st6" x1="321.6" y1="904.1" x2="1220" y2="903.6"/>
		<polygon class="st6" points="803.5,664.6 601.5,867.3 803.5,903.8 1009.5,866.6 		"/>
		<polygon class="st6" points="1085.5,795.4 1016.5,866.6 1085.5,879.5 		"/>
		<polygon class="st6" points="1085.5,789.6 939.6,639.2 1086.5,491.3 		"/>
		<polygon class="st6" points="598.5,867.3 393.2,663.1 154.3,549.8 74.1,619 321.6,904.1 		"/>
		<path class="st6" d="M393.2,663.1"/>
		<line class="st6" x1="1009.5" y1="866.6" x2="1017.9" y2="866.6"/>
		<line class="st6" x1="1181.9" y1="430" x2="1181.9" y2="16.3"/>
		<line class="st6" x1="1143.1" y1="430" x2="1143.1" y2="15.4"/>
		<line class="st6" x1="1087" y1="429.7" x2="1087" y2="15.4"/>
		<line class="st6" x1="1088.5" y1="431.3" x2="1220" y2="431.3"/>
		<line class="st6" x1="1086" y1="127.5" x2="1220" y2="127.5"/>
		<line class="st6" x1="73" y1="460.3" x2="73" y2="301.3"/>
		<line class="st6" x1="1086" y1="281.7" x2="939.1" y2="280.7"/>
		<line class="st6" x1="803.5" y1="255.3" x2="803.5" y2="15.3"/>
		<line class="st6" x1="155" y1="460.3" x2="155" y2="369.3"/>
		<line class="st6" x1="390.4" y1="460.3" x2="392.2" y2="256.8"/>
		<line class="st6" x1="155" y1="369.3" x2="321.6" y2="15.8"/>
		<line class="st6" x1="392.2" y1="256.8" x2="321.6" y2="15.8"/>
		<line class="st6" x1="321.6" y1="15.8" x2="1220" y2="16.3"/>
		<polygon class="st6" points="803.5,255.3 601.5,52.6 803.5,16.1 1009.5,53.3 		"/>
		<polygon class="st6" points="1085.5,124.5 1016.5,53.3 1085.5,40.4 		"/>
		<polygon class="st6" points="1085.5,130.3 939.6,280.7 1086.5,428.7 		"/>
		<polygon class="st6" points="598.5,52.6 393.2,256.8 154.3,370.1 74.1,300.9 321.6,15.8 		"/>
		<path class="st6" d="M393.2,256.8"/>
		<line class="st6" x1="1009.5" y1="53.3" x2="1017.9" y2="53.3"/>
		<path class="st6" d="M355.1,459.9c0,59.1,0,118.1,0,177.2c1.3,0.8,2.4,1.5,4,2.5c0-60,0-119.8,0-179.7s0-119.6,0-179.7
			c-1.6,1-2.7,1.7-4,2.5C355.1,341.8,355.1,400.8,355.1,459.9z"/>
		<path class="st6" d="M1009.4,67.1"/>
		<path class="st6" d="M1070.8,129.5"/>
		<path class="st6" d="M1009.4,67.1"/>
		<path class="st6" d="M1070.8,129.3"/>
		<path class="st6" d="M961.7,115.1"/>
		<path class="st6" d="M526.8,121"/>
		<path class="st6" d="M651.7,121"/>
		<path class="st6" d="M519.4,137.2"/>
		<path class="st6" d="M653.5,137.2"/>
		<path class="st6" d="M588.1,75.7"/>
		<path class="st6" d="M722,209.6"/>
		<polygon class="st6" points="640,353.6 714,353.6 738,340.6 870,340.6 894,353.6 968,353.6 968,565.6 894,565.6 870,578.6 
			738,578.6 714,565.6 640,565.6 		"/>
		<line class="st6" x1="1258.1" y1="489.9" x2="1258.1" y2="905.6"/>
		<line class="st6" x1="1296.9" y1="489.9" x2="1296.9" y2="904.5"/>
		<line class="st6" x1="1353" y1="490.3" x2="1353" y2="904.5"/>
		<line class="st6" x1="1351.5" y1="488.6" x2="1220" y2="488.6"/>
		<line class="st6" x1="1354" y1="792.4" x2="1220" y2="792.4"/>
		<line class="st6" x1="2367" y1="459.6" x2="2367" y2="618.6"/>
		<line class="st6" x1="1354" y1="638.2" x2="1500.9" y2="639.2"/>
		<line class="st6" x1="1636.5" y1="664.6" x2="1636.5" y2="904.6"/>
		<line class="st6" x1="2285" y1="459.6" x2="2285" y2="550.6"/>
		<line class="st6" x1="2049.6" y1="459.6" x2="2047.8" y2="663.1"/>
		<line class="st6" x1="2285" y1="550.6" x2="2118.4" y2="904.1"/>
		<line class="st6" x1="2047.8" y1="663.1" x2="2118.4" y2="904.1"/>
		<line class="st6" x1="2118.4" y1="904.1" x2="1220" y2="903.6"/>
		<polygon class="st6" points="1636.5,664.6 1838.5,867.3 1636.5,903.8 1430.5,866.6 		"/>
		<polygon class="st6" points="1354.5,795.4 1423.5,866.6 1354.5,879.5 		"/>
		<polygon class="st6" points="1354.5,789.6 1500.4,639.2 1353.5,491.3 		"/>
		<polygon class="st6" points="1841.5,867.3 2046.8,663.1 2285.7,549.8 2365.9,619 2118.4,904.1 		"/>
		<path class="st6" d="M2046.8,663.1"/>
		<line class="st6" x1="1430.5" y1="866.6" x2="1422.1" y2="866.6"/>
		<line class="st6" x1="1258.1" y1="430" x2="1258.1" y2="16.3"/>
		<line class="st6" x1="1296.9" y1="430" x2="1296.9" y2="15.4"/>
		<line class="st6" x1="1353" y1="429.7" x2="1353" y2="15.4"/>
		<line class="st6" x1="1351.5" y1="431.3" x2="1220" y2="431.3"/>
		<line class="st6" x1="1354" y1="127.5" x2="1220" y2="127.5"/>
		<line class="st6" x1="2367" y1="460.3" x2="2367" y2="301.3"/>
		<line class="st6" x1="1354" y1="281.7" x2="1500.9" y2="280.7"/>
		<line class="st6" x1="1636.5" y1="255.3" x2="1636.5" y2="15.3"/>
		<line class="st6" x1="2285" y1="460.3" x2="2285" y2="369.3"/>
		<line class="st6" x1="2049.6" y1="460.3" x2="2047.8" y2="256.8"/>
		<line class="st6" x1="2285" y1="369.3" x2="2118.4" y2="15.8"/>
		<line class="st6" x1="2047.8" y1="256.8" x2="2118.4" y2="15.8"/>
		<line class="st6" x1="2118.4" y1="15.8" x2="1220" y2="16.3"/>
		<polygon class="st6" points="1636.5,255.3 1838.5,52.6 1636.5,16.1 1430.5,53.3 		"/>
		<polygon class="st6" points="1354.5,124.5 1423.5,53.3 1354.5,40.4 		"/>
		<polygon class="st6" points="1354.5,130.3 1500.4,280.7 1353.5,428.7 		"/>
		<polygon class="st6" points="1841.5,52.6 2046.8,256.8 2285.7,370.1 2365.9,300.9 2118.4,15.8 		"/>
		<path class="st6" d="M2046.8,256.8"/>
		<line class="st6" x1="1430.5" y1="53.3" x2="1422.1" y2="53.3"/>
		<path class="st6" d="M2084.9,282.7c-1.3-0.8-2.4-1.5-4-2.5c0,60.1,0,119.8,0,179.7s0,119.7,0,179.7c1.6-1,2.7-1.7,4-2.5
			c0-59.1,0-118.1,0-177.2S2084.9,341.8,2084.9,282.7z"/>
		<path class="st6" d="M1430.6,67.1"/>
		<path class="st6" d="M1369.2,129.5"/>
		<path class="st6" d="M1430.6,67.1"/>
		<path class="st6" d="M1369.2,129.3"/>
		<path class="st6" d="M1478.3,115.1"/>
		<path class="st6" d="M1913.2,121"/>
		<path class="st6" d="M1788.3,121"/>
		<path class="st6" d="M1920.6,137.2"/>
		<path class="st6" d="M1786.5,137.2"/>
		<path class="st6" d="M1851.9,75.7"/>
		<path class="st6" d="M1718,209.6"/>
		<polygon class="st6" points="1800,353.6 1726,353.6 1702,340.6 1570,340.6 1546,353.6 1472,353.6 1472,565.6 1546,565.6 
			1570,578.6 1702,578.6 1726,565.6 1800,565.6 		"/>
		<line class="st7" x1="209.8" y1="509.6" x2="210" y2="409.6"/>
		<line class="st4" x1="2230.1" y1="509.6" x2="2230.3" y2="409.6"/>
	</g>
</g>
<g id="Layer_10">
</g>
<g id="Layer_13">
	<rect x="553.8" y="98.7" class="st8" width="73.3" height="52"/>
	<rect x="415.2" y="160" class="st8" width="68" height="42.7"/>
	<rect x="680.5" y="249.3" class="st8" width="68.7" height="68.7"/>
	<rect x="849.8" y="526.7" class="st8" width="54.7" height="30.7"/>
	<rect x="971.2" y="338.7" class="st8" width="54.7" height="45.3"/>
	<rect x="553.8" y="756" class="st8" width="73.3" height="38.7"/>
	<rect x="415.2" y="698.7" class="st8" width="68" height="45.3"/>
	<rect x="381.8" y="526.7" class="st8" width="67.3" height="54.7"/>
	<rect x="415.5" y="410.7" class="st8" width="55.7" height="76"/>
	
		<rect x="740.1" y="429.2" transform="matrix(0.7071 0.7071 -0.7071 0.7071 545.7888 -408.1671)" class="st8" width="51" height="51"/>
	
		<rect x="814.5" y="429.2" transform="matrix(0.7071 0.7071 -0.7071 0.7071 567.5825 -460.7819)" class="st8" width="51" height="51"/>
	
		<rect x="631.8" y="279.3" transform="matrix(0.7071 -0.7071 0.7071 0.7071 -22.141 551.8836)" class="st8" width="46.7" height="46.7"/>
	
		<rect x="628.3" y="583.5" transform="matrix(0.7071 -0.7071 0.7071 0.7071 -238.2147 638.5294)" class="st8" width="46.7" height="46.7"/>
	
		<rect x="946.8" y="610.1" transform="matrix(0.7071 -0.7071 0.7071 0.7071 -163.7177 871.5265)" class="st8" width="46.7" height="46.7"/>
	<rect x="904.5" y="736.4" class="st8" width="55.6" height="81.8"/>
	
		<rect x="929.1" y="754" transform="matrix(0.7071 -0.7071 0.7071 0.7071 -270.6929 901.1562)" class="st8" width="46.7" height="46.7"/>
	
		<rect x="391.8" y="558" transform="matrix(0.7071 -0.7071 0.7071 0.7071 -289.4652 463.8358)" class="st8" width="46.7" height="46.7"/>
	<rect x="381.8" y="320.8" class="st8" width="67.3" height="54.7"/>
	
		<rect x="391.8" y="305" transform="matrix(0.7071 -0.7071 0.7071 0.7071 -110.5684 389.7343)" class="st8" width="46.7" height="46.7"/>
	<rect x="904.5" y="83.8" class="st8" width="55.6" height="81.8"/>
	
		<rect x="929.1" y="101.3" transform="matrix(0.7071 -0.7071 0.7071 0.7071 190.8121 709.9946)" class="st8" width="46.7" height="46.7"/>
	<polygon class="st8" points="270.3,310.7 270.3,253.8 319.2,265.3 319.2,320.8 	"/>
	<polygon class="st8" points="322.3,631.3 266.5,642.2 268.5,592 322.9,581.3 	"/>
	<polygon class="st8" points="1029.3,424.4 1003,455.3 1029.7,486.7 1056,455.7 	"/>
	<path class="st9" d="M162.4,716.4c124.8-32.3,211.9-138.1,211.9-257.6c0-119.4-87-225.1-211.6-257.5l1.6-1.8
		c47.6,12.4,91.5,36.2,126.8,68.8c55.3,50.9,85.7,118.6,85.7,190.5c0,72-30.4,139.6-85.7,190.5c-35.5,32.7-79.5,56.5-127.3,68.9
		L162.4,716.4z"/>
	<g>
		
			<rect x="1820.5" y="98.7" transform="matrix(-1 -4.489621e-11 4.489621e-11 -1 3714.4307 249.3338)" class="st8" width="73.3" height="52"/>
		
			<rect x="1964.5" y="160" transform="matrix(-1 -4.487312e-11 4.487312e-11 -1 3997.0974 362.6671)" class="st8" width="68" height="42.7"/>
		
			<rect x="1698.5" y="249.3" transform="matrix(-1 -4.490109e-11 4.490109e-11 -1 3465.7639 567.3338)" class="st8" width="68.7" height="68.7"/>
		
			<rect x="1543.2" y="526.7" transform="matrix(-1 -4.492019e-11 4.492019e-11 -1 3141.0974 1084.0005)" class="st8" width="54.7" height="30.7"/>
		
			<rect x="1421.9" y="338.7" transform="matrix(-1 -4.490376e-11 4.490376e-11 -1 2898.4307 722.6671)" class="st8" width="54.7" height="45.3"/>
		
			<rect x="1820.5" y="756" transform="matrix(-1 -4.489621e-11 4.489621e-11 -1 3714.4307 1550.6671)" class="st8" width="73.3" height="38.7"/>
		
			<rect x="1964.5" y="698.7" transform="matrix(-1 -4.488644e-11 4.488644e-11 -1 3997.0974 1442.6671)" class="st8" width="68" height="45.3"/>
		
			<rect x="1998.5" y="526.7" transform="matrix(-1 -4.489843e-11 4.489843e-11 -1 4064.4307 1108.0005)" class="st8" width="67.3" height="54.7"/>
		
			<rect x="1976.5" y="410.7" transform="matrix(-1 -4.489754e-11 4.489754e-11 -1 4008.7639 897.3338)" class="st8" width="55.7" height="76"/>
		
			<rect x="1648.2" y="429.2" transform="matrix(-0.7071 0.7071 -0.7071 -0.7071 3178.7429 -407.1944)" class="st8" width="51" height="51"/>
		
			<rect x="1573.8" y="429.2" transform="matrix(-0.7071 0.7071 -0.7071 -0.7071 3051.7197 -354.5797)" class="st8" width="51" height="51"/>
		
			<rect x="1769.3" y="279.3" transform="matrix(-0.7071 -0.7071 0.7071 -0.7071 2846.1465 1784.2496)" class="st8" width="46.7" height="46.7"/>
		
			<rect x="1772.7" y="583.5" transform="matrix(-0.7071 -0.7071 0.7071 -0.7071 2636.9648 2305.8977)" class="st8" width="46.7" height="46.7"/>
		
			<rect x="1454.2" y="610.1" transform="matrix(-0.7071 -0.7071 0.7071 -0.7071 2074.4602 2126.0461)" class="st8" width="46.7" height="46.7"/>
		
			<rect x="1487.7" y="736.4" transform="matrix(-1 -4.492197e-11 4.492197e-11 -1 3030.875 1554.6671)" class="st8" width="55.6" height="81.8"/>
		
			<rect x="1471.9" y="754" transform="matrix(-0.7071 -0.7071 0.7071 -0.7071 2002.9279 2384.3069)" class="st8" width="46.7" height="46.7"/>
		
			<rect x="2009.2" y="558" transform="matrix(-0.7071 -0.7071 0.7071 -0.7071 3058.7126 2429.6274)" class="st8" width="46.7" height="46.7"/>
		
			<rect x="1998.5" y="320.8" transform="matrix(-1 -4.488511e-11 4.488511e-11 -1 4064.4307 696.3354)" class="st8" width="67.3" height="54.7"/>
		
			<rect x="2009.2" y="305" transform="matrix(-0.7071 -0.7071 0.7071 -0.7071 3237.6096 1997.7323)" class="st8" width="46.7" height="46.7"/>
		
			<rect x="1487.7" y="83.8" transform="matrix(-1 -4.488910e-11 4.488910e-11 -1 3030.875 249.3338)" class="st8" width="55.6" height="81.8"/>
		
			<rect x="1471.9" y="101.3" transform="matrix(-0.7071 -0.7071 0.7071 -0.7071 2464.4329 1270.1353)" class="st8" width="46.7" height="46.7"/>
		<polygon class="st8" points="2177.4,310.7 2177.4,253.8 2128.5,265.3 2128.5,320.8 		"/>
		<polygon class="st8" points="2125.4,631.3 2181.2,642.2 2179.2,592 2124.8,581.3 		"/>
		<polygon class="st8" points="1418.4,424.4 1444.7,455.3 1418,486.7 1391.7,455.7 		"/>
		<path class="st10" d="M2285.3,716.4c-124.8-32.3-211.9-138.1-211.9-257.6c0-119.4,87-225.1,211.6-257.5l-1.6-1.8
			c-47.6,12.4-91.5,36.2-126.8,68.8c-55.3,50.9-85.7,118.6-85.7,190.5c0,72,30.4,139.6,85.7,190.5c35.5,32.7,79.5,56.5,127.3,68.9
			L2285.3,716.4z"/>
	</g>
</g>
</svg>
